<svg xmlns="http://www.w3.org/2000/svg" viewBox="0 0 688.08 250"><defs><style>.cls-1{fill:#ec5539;}.cls-2{fill:#fff;}.cls-3{fill:#999;}.cls-4{fill:#e5e5e5;}</style></defs><title>iRM_1K*1K_Reverse</title><g id="Layer_2" data-name="Layer 2"><g id="BLACK_WHITE"><g id="iRM_1K_1K_Reverse" data-name="iRM_1K*1K_Reverse"><path class="cls-1" d="M21.23,57a15,15,0,0,0,11.3-4.71,15.56,15.56,0,0,0,4.79-11.53,15,15,0,0,0-4.71-11.29,15.52,15.52,0,0,0-11.52-4.79A15.31,15.31,0,0,0,9.75,29.42,15.14,15.14,0,0,0,5,40.61,15.66,15.66,0,0,0,9.75,52.24,15.5,15.5,0,0,0,21.23,57Z"/><path class="cls-1" d="M21.23,62a20,20,0,0,0,14.88-6.21,20.47,20.47,0,0,0,6.21-15,20,20,0,0,0-6.21-14.88,20.47,20.47,0,0,0-15-6.21A20.3,20.3,0,0,0,6.21,25.88,20.13,20.13,0,0,0,0,40.61,20.64,20.64,0,0,0,6.21,55.78,20.47,20.47,0,0,0,21.23,62ZM9.75,29.42a15.31,15.31,0,0,1,11.34-4.75,15.52,15.52,0,0,1,11.52,4.79,15,15,0,0,1,4.71,11.29,15.56,15.56,0,0,1-4.79,11.53A15,15,0,0,1,21.23,57,15.5,15.5,0,0,1,9.75,52.24,15.66,15.66,0,0,1,5,40.61,15.14,15.14,0,0,1,9.75,29.42Z"/><rect class="cls-1" x="9.91" y="104.1" width="22.5" height="130.67"/><path class="cls-1" d="M37.41,99.1H4.91V239.77h32.5Zm-5,135.67H9.91V104.1h22.5Z"/><path class="cls-2" d="M419.65,0,340.36,173.31,263.82,0,216.88,239.74l-69-95q22.23-4.76,35.81-21.8t13.58-40.73q0-30.33-21.66-48.82-19.65-16.6-63.84-16.61H72.31v223H106V148.47H112l63.69,91.28h76l24-134.75,64.13,145,66-144.86,21.52,134.61h34.52ZM106,119.15V48.38h12q46.5,0,46.51,34.23,0,36.54-47.81,36.54Z"/><polyline class="cls-2" points="524.81 16.82 499.81 16.82 482.31 16.82 457.31 16.82 496.83 239.75 539.33 239.75 539.31 239.75 564.33 239.75 524.81 16.82"/><polyline class="cls-3" points="648.56 16.82 618.56 16.82 658.08 239.75 688.08 239.75 648.56 16.82"/><polyline class="cls-4" points="598.85 16.82 592.6 16.82 556.35 16.82 550.1 16.82 589.61 239.75 632.12 239.75 632.11 239.75 638.37 239.75 598.85 16.82"/></g></g></g></svg>